<?xml version="1.0" encoding="UTF-8" standalone="no"?>
<?xml-stylesheet href="runes.css" type="text/css"?>
<!DOCTYPE svg PUBLIC "-//W3C//DTD SVG 1.1//EN" "http://www.w3.org/Graphics/SVG/1.1/DTD/svg11.dtd">
<svg width="100%" height="100%" version="1.1" xmlns="http://www.w3.org/2000/svg">
    
    <title>Viimane rukkiemapäev</title>

    <line x1="256" y1="67" x2="256" y2="200" />
    <line x1="198" y1="26" x2="198" y2="157" />
    <line x1="198" y1="97" x2="256" y2="97" />
    
    <line x1="150" y1="0" x2="150" y2="184" />
    <line x1="110" y1="184" x2="190" y2="184" />
    <line x1="110" y1="0" x2="190" y2="0" />
    
    <path d="M96,63 A210,350 150 0,0 198,36" />
    <path d="M0,130 A120,180 0 0,1 96,63" />
    
    <path d="M0,130 A120,180 0 0,1 100,124" />
    <path d="M100,124 A210,350 150 0,0 198,146" />

</svg>
